<svg data-v-423bf9ae="" xmlns="http://www.w3.org/2000/svg" viewBox="0 0 1506 1309" class="iconLeft"><!----><!----><!---->

<g data-v-423bf9ae="" id="29f81011-05f7-4d0d-852a-6da42c898c0e" transform="matrix(3.8125169542100696,0,0,3.8125169542100696,-332.94815709840304,-277.6082249617515)" stroke="none" fill="#CC0000">

<switch><g><path d="M301 105.1l-32.6-30.4c-.1-.1-.1-.1-.2-.1-1.9-1.7-4.7-2-7-.8l-169.9 87c-2.3 1-3.8 3.3-3.8 5.8v90.7c.1 1.6.8 3.2 2 4.3l164.1 152.7c1.2 1.2 2.8 1.9 4.5 1.9 1.2 0 2.3-.3 3.2-.9l169.5-86.9c2.3-1 3.9-3.3 3.9-5.8v-90.4c0-1.9-.8-3.6-2.3-4.8L399.8 197l-.2-.2c-1.9-1.6-4.7-2-6.9-.8l-80.5 41.2v-37.1c0-1.9-.8-3.6-2.3-4.8l-6.7-6.2v-79.2c0-1.9-.8-3.6-2.2-4.8zm-36.6 294.6v-76.3l157.7-80.8v76.3l-157.7 80.8zm26.2-222.3L277.3 165c-.1-.1-.2-.2-.3-.2-1.9-1.6-4.6-1.9-6.9-.8l-52.8 27.1-23.1-21.5 96.4-49.4v57.2zm-110-14.9c-1.5.8-2.6 2.1-3.1 3.7s-.4 3.3.4 4.8c.3.6.7 1.1 1.1 1.6l.2.2 32.9 30.6c2 1.9 5 2.2 7.4.9l52.6-27 23.1 21.5-48.8 25c-3.1 1.6-4.3 5.4-2.8 8.4.3.6.7 1.2 1.2 1.7l.1.1 32.9 30.6c2 1.9 5 2.2 7.4.9l109.4-56.1 23.1 21.5-158.4 81.2-154.7-144L263 86.9l23.1 21.5-105.5 54.1zm79.4 68.3l39.6-20.3v33.3l-16.5 8.5-23.1-21.5zm-8.2 91.5v73.2L100.1 254.3v-73.2l151.7 141.2z"></path></g></switch></g><!----></svg>