<svg data-v-fde0c5aa="" xmlns="http://www.w3.org/2000/svg" viewBox="0 0 300 300" class="font"><!----><defs data-v-fde0c5aa=""><!----></defs><rect data-v-fde0c5aa="" fill="#FFFFFF" x="0" y="0" width="300px" height="300px" class="logo-background-square"></rect><defs data-v-fde0c5aa=""><!----></defs><g data-v-fde0c5aa="" id="731466ca-cf9d-42d7-8d7c-a991d03b5ca9" fill="#000000" transform="matrix(7.243990580197602,0,0,7.243990580197602,35.43628596901755,88.38986274061435)"><path d="M3.16 9.10L3.16 11.94L3.16 11.94Q3.16 12.39 3.23 12.61L3.23 12.61L3.23 12.61Q3.30 12.84 3.49 12.92L3.49 12.92L3.49 12.92Q3.68 13.01 4.06 13.01L4.06 13.01L5.57 13.01L5.57 13.01Q6.08 13.01 6.36 12.90L6.36 12.90L6.36 12.90Q6.64 12.80 6.80 12.54L6.80 12.54L6.80 12.54Q6.96 12.28 7.10 11.76L7.10 11.76L7.18 11.44L7.66 11.61L7.66 14L7.38 14.15L7.27 14L7.27 14Q7.11 13.80 6.68 13.80L6.68 13.80L0.78 13.80L0.63 13.36L0.92 13.27L0.92 13.27Q1.44 13.12 1.61 12.88L1.61 12.88L1.61 12.88Q1.78 12.64 1.78 12.04L1.78 12.04L1.78 6.57L1.78 6.57Q1.78 5.73 1.64 5.21L1.64 5.21L1.64 5.21Q1.50 4.69 1.15 4.23L1.15 4.23L0.97 3.98L1.15 3.75L5.43 3.75L5.43 3.75Q6.64 3.75 7.03 3.46L7.03 3.46L7.28 3.28L7.50 3.46L7.50 5.95L7.03 6.12L6.94 5.80L6.94 5.80Q6.80 5.28 6.64 5.02L6.64 5.02L6.64 5.02Q6.48 4.76 6.20 4.65L6.20 4.65L6.20 4.65Q5.92 4.55 5.42 4.55L5.42 4.55L4.06 4.55L4.06 4.55Q3.68 4.55 3.49 4.63L3.49 4.63L3.49 4.63Q3.30 4.72 3.23 4.94L3.23 4.94L3.23 4.94Q3.16 5.17 3.16 5.61L3.16 5.61L3.16 8.30L4.94 8.30L4.94 8.30Q5.28 8.30 5.54 8.16L5.54 8.16L5.54 8.16Q5.80 8.01 6.05 7.66L6.05 7.66L6.16 7.50L6.44 7.66L6.44 10.05L5.96 10.22L5.88 9.90L5.88 9.90Q5.75 9.42 5.44 9.26L5.44 9.26L5.44 9.26Q5.12 9.10 4.35 9.10L4.35 9.10L3.16 9.10ZM12.75 7.45L12.75 7.45Q12.38 7.45 12.14 7.54L12.14 7.54L12.14 7.54Q11.90 7.63 11.86 7.63L11.86 7.63L11.86 7.63Q11.77 7.63 11.71 7.53L11.71 7.53L11.71 7.53Q11.65 7.43 11.65 7.32L11.65 7.32L11.65 7.32Q11.65 7.15 11.77 7.07L11.77 7.07L11.77 7.07Q12.42 6.66 13.19 6.66L13.19 6.66L13.19 6.66Q14.06 6.66 14.74 7.10L14.74 7.10L14.74 7.10Q15.41 7.53 15.79 8.30L15.79 8.30L15.79 8.30Q16.17 9.07 16.17 10.05L16.17 10.05L16.17 10.05Q16.17 11.17 15.69 12.07L15.69 12.07L15.69 12.07Q15.22 12.98 14.39 13.49L14.39 13.49L14.39 13.49Q13.57 14 12.53 14L12.53 14L12.53 14Q11.72 14 11.02 13.76L11.02 13.76L11.02 13.76Q10.32 13.52 9.91 13.12L9.91 13.12L9.91 4.37L9.91 4.37Q9.91 4.20 9.85 4.13L9.85 4.13L9.85 4.13Q9.79 4.06 9.63 4.06L9.63 4.06L9.02 4.06L8.89 3.70L8.89 3.70Q9.30 3.33 9.81 3.09L9.81 3.09L9.81 3.09Q10.33 2.86 10.74 2.86L10.74 2.86L10.74 2.86Q10.93 2.86 11.06 2.98L11.06 2.98L11.06 2.98Q11.19 3.11 11.19 3.30L11.19 3.30L11.19 12.77L11.19 12.77Q11.52 13.01 11.87 13.11L11.87 13.11L11.87 13.11Q12.21 13.22 12.66 13.22L12.66 13.22L12.66 13.22Q13.59 13.22 14.14 12.44L14.14 12.44L14.14 12.44Q14.69 11.66 14.69 10.33L14.69 10.33L14.69 10.33Q14.69 9.49 14.44 8.83L14.44 8.83L14.44 8.83Q14.20 8.18 13.76 7.81L13.76 7.81L13.76 7.81Q13.33 7.45 12.75 7.45L12.75 7.45ZM20.17 13.31L20.17 13.31Q20.75 13.31 21.12 13.00L21.12 13.00L21.12 13.00Q21.49 12.68 21.49 12.18L21.49 12.18L21.49 12.18Q21.49 11.73 21.11 11.45L21.11 11.45L21.11 11.45Q20.72 11.17 19.96 10.85L19.96 10.85L19.96 10.85Q19.28 10.57 18.82 10.30L18.82 10.30L18.82 10.30Q18.37 10.04 18.05 9.61L18.05 9.61L18.05 9.61Q17.72 9.18 17.72 8.55L17.72 8.55L17.72 8.55Q17.72 7.71 18.45 7.19L18.45 7.19L18.45 7.19Q19.17 6.66 20.27 6.66L20.27 6.66L20.27 6.66Q21.27 6.66 21.92 7.06L21.92 7.06L21.92 7.06Q22.58 7.45 22.58 8.11L22.58 8.11L22.58 8.11Q22.58 8.64 22.25 8.98L22.25 8.98L22.25 8.98Q21.92 9.32 21.41 9.32L21.41 9.32L21.41 9.32Q21.11 9.32 21.11 9.14L21.11 9.14L21.11 9.14Q21.11 9.09 21.22 8.86L21.22 8.86L21.22 8.86Q21.32 8.62 21.32 8.36L21.32 8.36L21.32 8.36Q21.32 7.84 20.97 7.59L20.97 7.59L20.97 7.59Q20.62 7.34 20.17 7.34L20.17 7.34L20.17 7.34Q19.60 7.34 19.27 7.62L19.27 7.62L19.27 7.62Q18.94 7.91 18.94 8.36L18.94 8.36L18.94 8.36Q18.94 8.88 19.36 9.19L19.36 9.19L19.36 9.19Q19.77 9.51 20.58 9.84L20.58 9.84L20.58 9.84Q21.25 10.12 21.70 10.37L21.70 10.37L21.70 10.37Q22.15 10.61 22.46 10.99L22.46 10.99L22.46 10.99Q22.76 11.37 22.76 11.90L22.76 11.90L22.76 11.90Q22.76 12.85 22.01 13.43L22.01 13.43L22.01 13.43Q21.25 14 19.99 14L19.99 14L19.99 14Q18.93 14 18.24 13.52L18.24 13.52L18.24 13.52Q17.56 13.05 17.56 12.25L17.56 12.25L17.56 12.25Q17.56 11.77 17.88 11.47L17.88 11.47L17.88 11.47Q18.20 11.16 18.72 11.16L18.72 11.16L18.72 11.16Q19.01 11.16 19.01 11.33L19.01 11.33L19.01 11.33Q19.01 11.37 18.93 11.59L18.93 11.59L18.93 11.59Q18.84 11.80 18.84 12.11L18.84 12.11L18.84 12.11Q18.84 12.70 19.26 13.01L19.26 13.01L19.26 13.01Q19.67 13.31 20.17 13.31L20.17 13.31ZM24.16 10.33L24.16 10.33Q24.16 9.21 24.58 8.39L24.58 8.39L24.58 8.39Q24.99 7.56 25.77 7.11L25.77 7.11L25.77 7.11Q26.54 6.66 27.58 6.66L27.58 6.66L27.58 6.66Q28.62 6.66 29.39 7.11L29.39 7.11L29.39 7.11Q30.16 7.56 30.58 8.39L30.58 8.39L30.58 8.39Q31.00 9.21 31.00 10.33L31.00 10.33L31.00 10.33Q31.00 11.44 30.58 12.27L30.58 12.27L30.58 12.27Q30.16 13.10 29.39 13.55L29.39 13.55L29.39 13.55Q28.62 14 27.58 14L27.58 14L27.58 14Q26.54 14 25.77 13.55L25.77 13.55L25.77 13.55Q24.99 13.10 24.58 12.27L24.58 12.27L24.58 12.27Q24.16 11.44 24.16 10.33L24.16 10.33ZM29.53 10.37L29.53 10.37Q29.53 9.72 29.34 9.03L29.34 9.03L29.34 9.03Q29.16 8.34 28.73 7.87L28.73 7.87L28.73 7.87Q28.31 7.39 27.62 7.39L27.62 7.39L27.62 7.39Q27.03 7.39 26.58 7.76L26.58 7.76L26.58 7.76Q26.12 8.13 25.87 8.81L25.87 8.81L25.87 8.81Q25.62 9.48 25.62 10.35L25.62 10.35L25.62 10.35Q25.62 11.68 26.14 12.46L26.14 12.46L26.14 12.46Q26.66 13.24 27.54 13.24L27.54 13.24L27.54 13.24Q28.11 13.24 28.57 12.89L28.57 12.89L28.57 12.89Q29.02 12.53 29.27 11.88L29.27 11.88L29.27 11.88Q29.53 11.23 29.53 10.37L29.53 10.37Z"></path></g><!----><!----></svg>